<svg width="430" height="262" viewBox="0 0 430 262" fill="none" xmlns="http://www.w3.org/2000/svg">
<rect width="430" height="262" fill="#E57B5C"/>
<path d="M177.946 128.606H172.942L172.114 131H169.468L173.986 118.418H176.92L181.438 131H178.774L177.946 128.606ZM177.262 126.59L175.444 121.334L173.626 126.59H177.262ZM186.061 123.098V127.922C186.061 128.258 186.139 128.504 186.295 128.66C186.463 128.804 186.739 128.876 187.123 128.876H188.293V131H186.709C184.585 131 183.523 129.968 183.523 127.904V123.098H182.335V121.028H183.523V118.562H186.061V121.028H188.293V123.098H186.061ZM193.039 123.098V127.922C193.039 128.258 193.117 128.504 193.273 128.66C193.441 128.804 193.717 128.876 194.101 128.876H195.271V131H193.687C191.563 131 190.501 129.968 190.501 127.904V123.098H189.313V121.028H190.501V118.562H193.039V121.028H195.271V123.098H193.039ZM206.354 125.798C206.354 126.158 206.33 126.482 206.282 126.77H198.992C199.052 127.49 199.304 128.054 199.748 128.462C200.192 128.87 200.738 129.074 201.386 129.074C202.322 129.074 202.988 128.672 203.384 127.868H206.102C205.814 128.828 205.262 129.62 204.446 130.244C203.63 130.856 202.628 131.162 201.44 131.162C200.48 131.162 199.616 130.952 198.848 130.532C198.092 130.1 197.498 129.494 197.066 128.714C196.646 127.934 196.436 127.034 196.436 126.014C196.436 124.982 196.646 124.076 197.066 123.296C197.486 122.516 198.074 121.916 198.83 121.496C199.586 121.076 200.456 120.866 201.44 120.866C202.388 120.866 203.234 121.07 203.978 121.478C204.734 121.886 205.316 122.468 205.724 123.224C206.144 123.968 206.354 124.826 206.354 125.798ZM203.744 125.078C203.732 124.43 203.498 123.914 203.042 123.53C202.586 123.134 202.028 122.936 201.368 122.936C200.744 122.936 200.216 123.128 199.784 123.512C199.364 123.884 199.106 124.406 199.01 125.078H203.744ZM213.719 120.884C214.907 120.884 215.867 121.262 216.599 122.018C217.331 122.762 217.697 123.806 217.697 125.15V131H215.177V125.492C215.177 124.7 214.979 124.094 214.583 123.674C214.187 123.242 213.647 123.026 212.963 123.026C212.267 123.026 211.715 123.242 211.307 123.674C210.911 124.094 210.713 124.7 210.713 125.492V131H208.193V121.028H210.713V122.27C211.049 121.838 211.475 121.502 211.991 121.262C212.519 121.01 213.095 120.884 213.719 120.884ZM219.446 125.978C219.446 124.97 219.644 124.076 220.04 123.296C220.448 122.516 221 121.916 221.696 121.496C222.392 121.076 223.166 120.866 224.018 120.866C224.666 120.866 225.284 121.01 225.872 121.298C226.46 121.574 226.928 121.946 227.276 122.414V117.68H229.832V131H227.276V129.524C226.964 130.016 226.526 130.412 225.962 130.712C225.398 131.012 224.744 131.162 224 131.162C223.16 131.162 222.392 130.946 221.696 130.514C221 130.082 220.448 129.476 220.04 128.696C219.644 127.904 219.446 126.998 219.446 125.978ZM227.294 126.014C227.294 125.402 227.174 124.88 226.934 124.448C226.694 124.004 226.37 123.668 225.962 123.44C225.554 123.2 225.116 123.08 224.648 123.08C224.18 123.08 223.748 123.194 223.352 123.422C222.956 123.65 222.632 123.986 222.38 124.43C222.14 124.862 222.02 125.378 222.02 125.978C222.02 126.578 222.14 127.106 222.38 127.562C222.632 128.006 222.956 128.348 223.352 128.588C223.76 128.828 224.192 128.948 224.648 128.948C225.116 128.948 225.554 128.834 225.962 128.606C226.37 128.366 226.694 128.03 226.934 127.598C227.174 127.154 227.294 126.626 227.294 126.014ZM231.645 125.978C231.645 124.97 231.843 124.076 232.239 123.296C232.647 122.516 233.193 121.916 233.877 121.496C234.573 121.076 235.347 120.866 236.199 120.866C236.943 120.866 237.591 121.016 238.143 121.316C238.707 121.616 239.157 121.994 239.493 122.45V121.028H242.031V131H239.493V129.542C239.169 130.01 238.719 130.4 238.143 130.712C237.579 131.012 236.925 131.162 236.181 131.162C235.341 131.162 234.573 130.946 233.877 130.514C233.193 130.082 232.647 129.476 232.239 128.696C231.843 127.904 231.645 126.998 231.645 125.978ZM239.493 126.014C239.493 125.402 239.373 124.88 239.133 124.448C238.893 124.004 238.569 123.668 238.161 123.44C237.753 123.2 237.315 123.08 236.847 123.08C236.379 123.08 235.947 123.194 235.551 123.422C235.155 123.65 234.831 123.986 234.579 124.43C234.339 124.862 234.219 125.378 234.219 125.978C234.219 126.578 234.339 127.106 234.579 127.562C234.831 128.006 235.155 128.348 235.551 128.588C235.959 128.828 236.391 128.948 236.847 128.948C237.315 128.948 237.753 128.834 238.161 128.606C238.569 128.366 238.893 128.03 239.133 127.598C239.373 127.154 239.493 126.626 239.493 126.014ZM250.018 120.884C251.206 120.884 252.166 121.262 252.898 122.018C253.63 122.762 253.996 123.806 253.996 125.15V131H251.476V125.492C251.476 124.7 251.278 124.094 250.882 123.674C250.486 123.242 249.946 123.026 249.262 123.026C248.566 123.026 248.014 123.242 247.606 123.674C247.21 124.094 247.012 124.7 247.012 125.492V131H244.492V121.028H247.012V122.27C247.348 121.838 247.774 121.502 248.29 121.262C248.818 121.01 249.394 120.884 250.018 120.884ZM255.744 126.014C255.744 124.982 255.954 124.082 256.374 123.314C256.794 122.534 257.376 121.934 258.12 121.514C258.864 121.082 259.716 120.866 260.676 120.866C261.912 120.866 262.932 121.178 263.736 121.802C264.552 122.414 265.098 123.278 265.374 124.394H262.656C262.512 123.962 262.266 123.626 261.918 123.386C261.582 123.134 261.162 123.008 260.658 123.008C259.938 123.008 259.368 123.272 258.948 123.8C258.528 124.316 258.318 125.054 258.318 126.014C258.318 126.962 258.528 127.7 258.948 128.228C259.368 128.744 259.938 129.002 260.658 129.002C261.678 129.002 262.344 128.546 262.656 127.634H265.374C265.098 128.714 264.552 129.572 263.736 130.208C262.92 130.844 261.9 131.162 260.676 131.162C259.716 131.162 258.864 130.952 258.12 130.532C257.376 130.1 256.794 129.5 256.374 128.732C255.954 127.952 255.744 127.046 255.744 126.014ZM276.491 125.798C276.491 126.158 276.467 126.482 276.419 126.77H269.129C269.189 127.49 269.441 128.054 269.885 128.462C270.329 128.87 270.875 129.074 271.523 129.074C272.459 129.074 273.125 128.672 273.521 127.868H276.239C275.951 128.828 275.399 129.62 274.583 130.244C273.767 130.856 272.765 131.162 271.577 131.162C270.617 131.162 269.753 130.952 268.985 130.532C268.229 130.1 267.635 129.494 267.203 128.714C266.783 127.934 266.573 127.034 266.573 126.014C266.573 124.982 266.783 124.076 267.203 123.296C267.623 122.516 268.211 121.916 268.967 121.496C269.723 121.076 270.593 120.866 271.577 120.866C272.525 120.866 273.371 121.07 274.115 121.478C274.871 121.886 275.453 122.468 275.861 123.224C276.281 123.968 276.491 124.826 276.491 125.798ZM273.881 125.078C273.869 124.43 273.635 123.914 273.179 123.53C272.723 123.134 272.165 122.936 271.505 122.936C270.881 122.936 270.353 123.128 269.921 123.512C269.501 123.884 269.243 124.406 269.147 125.078H273.881Z" fill="#E6E6E6"/>
<g clip-path="url(#clip0_60_11)">
<path d="M155.889 128.4C155.889 128.4 155.167 128.4 155.167 127.678C155.167 126.956 155.889 124.789 159.5 124.789C163.111 124.789 163.833 126.956 163.833 127.678C163.833 128.4 163.111 128.4 163.111 128.4H155.889ZM159.5 124.067C160.075 124.067 160.626 123.838 161.032 123.432C161.438 123.026 161.667 122.475 161.667 121.9C161.667 121.325 161.438 120.774 161.032 120.368C160.626 119.962 160.075 119.733 159.5 119.733C158.925 119.733 158.374 119.962 157.968 120.368C157.562 120.774 157.333 121.325 157.333 121.9C157.333 122.475 157.562 123.026 157.968 123.432C158.374 123.838 158.925 124.067 159.5 124.067Z" fill="#E6E6E6"/>
<path d="M154.219 118.812C154.111 118.812 154.008 118.855 153.931 118.931C153.855 119.008 153.812 119.111 153.812 119.219V122.469C153.812 122.576 153.77 122.68 153.694 122.756C153.617 122.832 153.514 122.875 153.406 122.875C153.299 122.875 153.195 122.832 153.119 122.756C153.043 122.68 153 122.576 153 122.469V119.219C153 118.896 153.128 118.586 153.357 118.357C153.586 118.128 153.896 118 154.219 118H157.469C157.576 118 157.68 118.043 157.756 118.119C157.832 118.195 157.875 118.299 157.875 118.406C157.875 118.514 157.832 118.617 157.756 118.694C157.68 118.77 157.576 118.812 157.469 118.812H154.219ZM161.125 118.406C161.125 118.299 161.168 118.195 161.244 118.119C161.32 118.043 161.424 118 161.531 118H164.781C165.104 118 165.414 118.128 165.643 118.357C165.872 118.586 166 118.896 166 119.219V122.469C166 122.576 165.957 122.68 165.881 122.756C165.805 122.832 165.701 122.875 165.594 122.875C165.486 122.875 165.383 122.832 165.306 122.756C165.23 122.68 165.188 122.576 165.188 122.469V119.219C165.188 119.111 165.145 119.008 165.069 118.931C164.992 118.855 164.889 118.812 164.781 118.812H161.531C161.424 118.812 161.32 118.77 161.244 118.694C161.168 118.617 161.125 118.514 161.125 118.406ZM153.406 126.125C153.514 126.125 153.617 126.168 153.694 126.244C153.77 126.32 153.812 126.424 153.812 126.531V129.781C153.812 129.889 153.855 129.992 153.931 130.069C154.008 130.145 154.111 130.188 154.219 130.188H157.469C157.576 130.188 157.68 130.23 157.756 130.306C157.832 130.383 157.875 130.486 157.875 130.594C157.875 130.701 157.832 130.805 157.756 130.881C157.68 130.957 157.576 131 157.469 131H154.219C153.896 131 153.586 130.872 153.357 130.643C153.128 130.414 153 130.104 153 129.781V126.531C153 126.424 153.043 126.32 153.119 126.244C153.195 126.168 153.299 126.125 153.406 126.125ZM165.594 126.125C165.701 126.125 165.805 126.168 165.881 126.244C165.957 126.32 166 126.424 166 126.531V129.781C166 130.104 165.872 130.414 165.643 130.643C165.414 130.872 165.104 131 164.781 131H161.531C161.424 131 161.32 130.957 161.244 130.881C161.168 130.805 161.125 130.701 161.125 130.594C161.125 130.486 161.168 130.383 161.244 130.306C161.32 130.23 161.424 130.188 161.531 130.188H164.781C164.889 130.188 164.992 130.145 165.069 130.069C165.145 129.992 165.188 129.889 165.188 129.781V126.531C165.188 126.424 165.23 126.32 165.306 126.244C165.383 126.168 165.486 126.125 165.594 126.125Z" fill="#E6E6E6"/>
</g>
<defs>
<clipPath id="clip0_60_11">
<rect width="13" height="13" fill="white" transform="translate(153 118)"/>
</clipPath>
</defs>
</svg>
