<svg width="125" height="27" viewBox="0 0 125 27" fill="none" xmlns="http://www.w3.org/2000/svg">
<path d="M24.946 17.606H19.942L19.114 20H16.468L20.986 7.418H23.92L28.438 20H25.774L24.946 17.606ZM24.262 15.59L22.444 10.334L20.626 15.59H24.262ZM33.0608 12.098V16.922C33.0608 17.258 33.1388 17.504 33.2948 17.66C33.4628 17.804 33.7388 17.876 34.1228 17.876H35.2928V20H33.7088C31.5848 20 30.5228 18.968 30.5228 16.904V12.098H29.3348V10.028H30.5228V7.562H33.0608V10.028H35.2928V12.098H33.0608ZM40.0393 12.098V16.922C40.0393 17.258 40.1173 17.504 40.2733 17.66C40.4413 17.804 40.7173 17.876 41.1013 17.876H42.2713V20H40.6873C38.5633 20 37.5013 18.968 37.5013 16.904V12.098H36.3133V10.028H37.5013V7.562H40.0393V10.028H42.2713V12.098H40.0393ZM53.3538 14.798C53.3538 15.158 53.3298 15.482 53.2818 15.77H45.9918C46.0518 16.49 46.3038 17.054 46.7478 17.462C47.1918 17.87 47.7378 18.074 48.3858 18.074C49.3218 18.074 49.9878 17.672 50.3838 16.868H53.1018C52.8138 17.828 52.2618 18.62 51.4458 19.244C50.6298 19.856 49.6278 20.162 48.4398 20.162C47.4798 20.162 46.6158 19.952 45.8478 19.532C45.0918 19.1 44.4978 18.494 44.0658 17.714C43.6458 16.934 43.4358 16.034 43.4358 15.014C43.4358 13.982 43.6458 13.076 44.0658 12.296C44.4858 11.516 45.0738 10.916 45.8298 10.496C46.5858 10.076 47.4558 9.866 48.4398 9.866C49.3878 9.866 50.2338 10.07 50.9778 10.478C51.7338 10.886 52.3158 11.468 52.7238 12.224C53.1438 12.968 53.3538 13.826 53.3538 14.798ZM50.7438 14.078C50.7318 13.43 50.4978 12.914 50.0418 12.53C49.5858 12.134 49.0278 11.936 48.3678 11.936C47.7438 11.936 47.2158 12.128 46.7838 12.512C46.3638 12.884 46.1058 13.406 46.0098 14.078H50.7438ZM60.7192 9.884C61.9072 9.884 62.8672 10.262 63.5992 11.018C64.3312 11.762 64.6972 12.806 64.6972 14.15V20H62.1772V14.492C62.1772 13.7 61.9792 13.094 61.5832 12.674C61.1872 12.242 60.6472 12.026 59.9632 12.026C59.2672 12.026 58.7152 12.242 58.3072 12.674C57.9112 13.094 57.7132 13.7 57.7132 14.492V20H55.1932V10.028H57.7132V11.27C58.0492 10.838 58.4752 10.502 58.9912 10.262C59.5192 10.01 60.0952 9.884 60.7192 9.884ZM66.4456 14.978C66.4456 13.97 66.6436 13.076 67.0396 12.296C67.4476 11.516 67.9996 10.916 68.6956 10.496C69.3916 10.076 70.1656 9.866 71.0176 9.866C71.6656 9.866 72.2836 10.01 72.8716 10.298C73.4596 10.574 73.9276 10.946 74.2756 11.414V6.68H76.8316V20H74.2756V18.524C73.9636 19.016 73.5256 19.412 72.9616 19.712C72.3976 20.012 71.7436 20.162 70.9996 20.162C70.1596 20.162 69.3916 19.946 68.6956 19.514C67.9996 19.082 67.4476 18.476 67.0396 17.696C66.6436 16.904 66.4456 15.998 66.4456 14.978ZM74.2936 15.014C74.2936 14.402 74.1736 13.88 73.9336 13.448C73.6936 13.004 73.3696 12.668 72.9616 12.44C72.5536 12.2 72.1156 12.08 71.6476 12.08C71.1796 12.08 70.7476 12.194 70.3516 12.422C69.9556 12.65 69.6316 12.986 69.3796 13.43C69.1396 13.862 69.0196 14.378 69.0196 14.978C69.0196 15.578 69.1396 16.106 69.3796 16.562C69.6316 17.006 69.9556 17.348 70.3516 17.588C70.7596 17.828 71.1916 17.948 71.6476 17.948C72.1156 17.948 72.5536 17.834 72.9616 17.606C73.3696 17.366 73.6936 17.03 73.9336 16.598C74.1736 16.154 74.2936 15.626 74.2936 15.014ZM78.6448 14.978C78.6448 13.97 78.8428 13.076 79.2388 12.296C79.6468 11.516 80.1928 10.916 80.8768 10.496C81.5728 10.076 82.3468 9.866 83.1988 9.866C83.9428 9.866 84.5908 10.016 85.1428 10.316C85.7068 10.616 86.1568 10.994 86.4928 11.45V10.028H89.0308V20H86.4928V18.542C86.1688 19.01 85.7188 19.4 85.1428 19.712C84.5788 20.012 83.9248 20.162 83.1808 20.162C82.3408 20.162 81.5728 19.946 80.8768 19.514C80.1928 19.082 79.6468 18.476 79.2388 17.696C78.8428 16.904 78.6448 15.998 78.6448 14.978ZM86.4928 15.014C86.4928 14.402 86.3728 13.88 86.1328 13.448C85.8928 13.004 85.5688 12.668 85.1608 12.44C84.7528 12.2 84.3148 12.08 83.8468 12.08C83.3788 12.08 82.9468 12.194 82.5508 12.422C82.1548 12.65 81.8308 12.986 81.5788 13.43C81.3388 13.862 81.2188 14.378 81.2188 14.978C81.2188 15.578 81.3388 16.106 81.5788 16.562C81.8308 17.006 82.1548 17.348 82.5508 17.588C82.9588 17.828 83.3908 17.948 83.8468 17.948C84.3148 17.948 84.7528 17.834 85.1608 17.606C85.5688 17.366 85.8928 17.03 86.1328 16.598C86.3728 16.154 86.4928 15.626 86.4928 15.014ZM97.018 9.884C98.206 9.884 99.166 10.262 99.898 11.018C100.63 11.762 100.996 12.806 100.996 14.15V20H98.476V14.492C98.476 13.7 98.278 13.094 97.882 12.674C97.486 12.242 96.946 12.026 96.262 12.026C95.566 12.026 95.014 12.242 94.606 12.674C94.21 13.094 94.012 13.7 94.012 14.492V20H91.492V10.028H94.012V11.27C94.348 10.838 94.774 10.502 95.29 10.262C95.818 10.01 96.394 9.884 97.018 9.884ZM102.744 15.014C102.744 13.982 102.954 13.082 103.374 12.314C103.794 11.534 104.376 10.934 105.12 10.514C105.864 10.082 106.716 9.866 107.676 9.866C108.912 9.866 109.932 10.178 110.736 10.802C111.552 11.414 112.098 12.278 112.374 13.394H109.656C109.512 12.962 109.266 12.626 108.918 12.386C108.582 12.134 108.162 12.008 107.658 12.008C106.938 12.008 106.368 12.272 105.948 12.8C105.528 13.316 105.318 14.054 105.318 15.014C105.318 15.962 105.528 16.7 105.948 17.228C106.368 17.744 106.938 18.002 107.658 18.002C108.678 18.002 109.344 17.546 109.656 16.634H112.374C112.098 17.714 111.552 18.572 110.736 19.208C109.92 19.844 108.9 20.162 107.676 20.162C106.716 20.162 105.864 19.952 105.12 19.532C104.376 19.1 103.794 18.5 103.374 17.732C102.954 16.952 102.744 16.046 102.744 15.014ZM123.491 14.798C123.491 15.158 123.467 15.482 123.419 15.77H116.129C116.189 16.49 116.441 17.054 116.885 17.462C117.329 17.87 117.875 18.074 118.523 18.074C119.459 18.074 120.125 17.672 120.521 16.868H123.239C122.951 17.828 122.399 18.62 121.583 19.244C120.767 19.856 119.765 20.162 118.577 20.162C117.617 20.162 116.753 19.952 115.985 19.532C115.229 19.1 114.635 18.494 114.203 17.714C113.783 16.934 113.573 16.034 113.573 15.014C113.573 13.982 113.783 13.076 114.203 12.296C114.623 11.516 115.211 10.916 115.967 10.496C116.723 10.076 117.593 9.866 118.577 9.866C119.525 9.866 120.371 10.07 121.115 10.478C121.871 10.886 122.453 11.468 122.861 12.224C123.281 12.968 123.491 13.826 123.491 14.798ZM120.881 14.078C120.869 13.43 120.635 12.914 120.179 12.53C119.723 12.134 119.165 11.936 118.505 11.936C117.881 11.936 117.353 12.128 116.921 12.512C116.501 12.884 116.243 13.406 116.147 14.078H120.881Z" fill="#E6E6E6"/>
<g clip-path="url(#clip0_2_111)">
<path d="M2.88891 17.4C2.88891 17.4 2.16669 17.4 2.16669 16.6778C2.16669 15.9556 2.88891 13.7889 6.50002 13.7889C10.1111 13.7889 10.8334 15.9556 10.8334 16.6778C10.8334 17.4 10.1111 17.4 10.1111 17.4H2.88891ZM6.50002 13.0667C7.07466 13.0667 7.62576 12.8384 8.03209 12.4321C8.43841 12.0257 8.66669 11.4746 8.66669 10.9C8.66669 10.3254 8.43841 9.77427 8.03209 9.36794C7.62576 8.96161 7.07466 8.73334 6.50002 8.73334C5.92538 8.73334 5.37428 8.96161 4.96796 9.36794C4.56163 9.77427 4.33335 10.3254 4.33335 10.9C4.33335 11.4746 4.56163 12.0257 4.96796 12.4321C5.37428 12.8384 5.92538 13.0667 6.50002 13.0667Z" fill="#E6E6E6"/>
<path d="M1.21875 7.8125C1.11101 7.8125 1.00767 7.8553 0.931488 7.93149C0.855301 8.00767 0.8125 8.11101 0.8125 8.21875V11.4688C0.8125 11.5765 0.769699 11.6798 0.693512 11.756C0.617325 11.8322 0.513994 11.875 0.40625 11.875C0.298506 11.875 0.195175 11.8322 0.118988 11.756C0.0428012 11.6798 0 11.5765 0 11.4688V8.21875C0 7.89552 0.128404 7.58552 0.356964 7.35696C0.585524 7.1284 0.895517 7 1.21875 7H4.46875C4.57649 7 4.67983 7.0428 4.75601 7.11899C4.8322 7.19517 4.875 7.29851 4.875 7.40625C4.875 7.51399 4.8322 7.61733 4.75601 7.69351C4.67983 7.7697 4.57649 7.8125 4.46875 7.8125H1.21875ZM8.125 7.40625C8.125 7.29851 8.1678 7.19517 8.24399 7.11899C8.32017 7.0428 8.42351 7 8.53125 7H11.7812C12.1045 7 12.4145 7.1284 12.643 7.35696C12.8716 7.58552 13 7.89552 13 8.21875V11.4688C13 11.5765 12.9572 11.6798 12.881 11.756C12.8048 11.8322 12.7015 11.875 12.5938 11.875C12.486 11.875 12.3827 11.8322 12.3065 11.756C12.2303 11.6798 12.1875 11.5765 12.1875 11.4688V8.21875C12.1875 8.11101 12.1447 8.00767 12.0685 7.93149C11.9923 7.8553 11.889 7.8125 11.7812 7.8125H8.53125C8.42351 7.8125 8.32017 7.7697 8.24399 7.69351C8.1678 7.61733 8.125 7.51399 8.125 7.40625ZM0.40625 15.125C0.513994 15.125 0.617325 15.1678 0.693512 15.244C0.769699 15.3202 0.8125 15.4235 0.8125 15.5312V18.7812C0.8125 18.889 0.855301 18.9923 0.931488 19.0685C1.00767 19.1447 1.11101 19.1875 1.21875 19.1875H4.46875C4.57649 19.1875 4.67983 19.2303 4.75601 19.3065C4.8322 19.3827 4.875 19.486 4.875 19.5938C4.875 19.7015 4.8322 19.8048 4.75601 19.881C4.67983 19.9572 4.57649 20 4.46875 20H1.21875C0.895517 20 0.585524 19.8716 0.356964 19.643C0.128404 19.4145 0 19.1045 0 18.7812L0 15.5312C0 15.4235 0.0428012 15.3202 0.118988 15.244C0.195175 15.1678 0.298506 15.125 0.40625 15.125ZM12.5938 15.125C12.7015 15.125 12.8048 15.1678 12.881 15.244C12.9572 15.3202 13 15.4235 13 15.5312V18.7812C13 19.1045 12.8716 19.4145 12.643 19.643C12.4145 19.8716 12.1045 20 11.7812 20H8.53125C8.42351 20 8.32017 19.9572 8.24399 19.881C8.1678 19.8048 8.125 19.7015 8.125 19.5938C8.125 19.486 8.1678 19.3827 8.24399 19.3065C8.32017 19.2303 8.42351 19.1875 8.53125 19.1875H11.7812C11.889 19.1875 11.9923 19.1447 12.0685 19.0685C12.1447 18.9923 12.1875 18.889 12.1875 18.7812V15.5312C12.1875 15.4235 12.2303 15.3202 12.3065 15.244C12.3827 15.1678 12.486 15.125 12.5938 15.125Z" fill="#E6E6E6"/>
</g>
<defs>
<clipPath id="clip0_2_111">
<rect width="13" height="13" fill="white" transform="translate(0 7)"/>
</clipPath>
</defs>
</svg>
