<svg width="250" height="250" viewBox="0 0 250 250" fill="none" xmlns="http://www.w3.org/2000/svg">
<g clip-path="url(#clip0_2_457)">
<path d="M164.062 132.812C164.062 143.173 159.947 153.108 152.621 160.434C145.296 167.759 135.36 171.875 125 171.875C114.64 171.875 104.704 167.759 97.3786 160.434C90.053 153.108 85.9375 143.173 85.9375 132.812C85.9375 122.452 90.053 112.517 97.3786 105.191C104.704 97.8655 114.64 93.75 125 93.75C135.36 93.75 145.296 97.8655 152.621 105.191C159.947 112.517 164.062 122.452 164.062 132.812Z" fill="black"/>
<path d="M31.25 62.5C22.962 62.5 15.0134 65.7924 9.15291 71.6529C3.2924 77.5134 0 85.462 0 93.75L0 187.5C0 195.788 3.2924 203.737 9.15291 209.597C15.0134 215.458 22.962 218.75 31.25 218.75H218.75C227.038 218.75 234.987 215.458 240.847 209.597C246.708 203.737 250 195.788 250 187.5V93.75C250 85.462 246.708 77.5134 240.847 71.6529C234.987 65.7924 227.038 62.5 218.75 62.5H200.438C192.15 62.4982 184.203 59.2047 178.344 53.3438L165.406 40.4062C159.547 34.5453 151.6 31.2518 143.312 31.25H106.688C98.4002 31.2518 90.4529 34.5453 84.5938 40.4062L71.6562 53.3438C65.7971 59.2047 57.8498 62.4982 49.5625 62.5H31.25ZM39.0625 93.75C36.9905 93.75 35.0034 92.9269 33.5382 91.4618C32.0731 89.9966 31.25 88.0095 31.25 85.9375C31.25 83.8655 32.0731 81.8784 33.5382 80.4132C35.0034 78.9481 36.9905 78.125 39.0625 78.125C41.1345 78.125 43.1216 78.9481 44.5868 80.4132C46.0519 81.8784 46.875 83.8655 46.875 85.9375C46.875 88.0095 46.0519 89.9966 44.5868 91.4618C43.1216 92.9269 41.1345 93.75 39.0625 93.75ZM179.688 132.812C179.688 147.317 173.926 161.227 163.67 171.482C153.414 181.738 139.504 187.5 125 187.5C110.496 187.5 96.586 181.738 86.3301 171.482C76.0742 161.227 70.3125 147.317 70.3125 132.812C70.3125 118.308 76.0742 104.398 86.3301 94.1426C96.586 83.8867 110.496 78.125 125 78.125C139.504 78.125 153.414 83.8867 163.67 94.1426C173.926 104.398 179.688 118.308 179.688 132.812Z" fill="black"/>
</g>
<defs>
<clipPath id="clip0_2_457">
<rect width="250" height="250" fill="white"/>
</clipPath>
</defs>
</svg>
