<svg width="49" height="51" viewBox="0 0 49 51" fill="none" xmlns="http://www.w3.org/2000/svg">
<path d="M10.368 33.832V45H8.128V40.248H3.344V45H1.104V33.832H3.344V38.424H8.128V33.832H10.368ZM16.5088 45.144C15.6554 45.144 14.8874 44.9573 14.2048 44.584C13.5221 44.2 12.9834 43.6613 12.5888 42.968C12.2048 42.2747 12.0128 41.4747 12.0128 40.568C12.0128 39.6613 12.2101 38.8613 12.6048 38.168C13.0101 37.4747 13.5594 36.9413 14.2528 36.568C14.9461 36.184 15.7194 35.992 16.5728 35.992C17.4261 35.992 18.1994 36.184 18.8928 36.568C19.5861 36.9413 20.1301 37.4747 20.5248 38.168C20.9301 38.8613 21.1328 39.6613 21.1328 40.568C21.1328 41.4747 20.9248 42.2747 20.5087 42.968C20.1034 43.6613 19.5488 44.2 18.8448 44.584C18.1514 44.9573 17.3728 45.144 16.5088 45.144ZM16.5088 43.192C16.9141 43.192 17.2928 43.096 17.6448 42.904C18.0074 42.7013 18.2954 42.4027 18.5088 42.008C18.7221 41.6133 18.8288 41.1333 18.8288 40.568C18.8288 39.7253 18.6048 39.08 18.1568 38.632C17.7194 38.1733 17.1808 37.944 16.5408 37.944C15.9008 37.944 15.3621 38.1733 14.9248 38.632C14.4981 39.08 14.2848 39.7253 14.2848 40.568C14.2848 41.4107 14.4928 42.0613 14.9088 42.52C15.3354 42.968 15.8688 43.192 16.5088 43.192ZM33.7839 36.008C34.8719 36.008 35.7465 36.344 36.4079 37.016C37.0799 37.6773 37.4159 38.6053 37.4159 39.8V45H35.1759V40.104C35.1759 39.4107 34.9999 38.8827 34.6479 38.52C34.2959 38.1467 33.8159 37.96 33.2079 37.96C32.5999 37.96 32.1145 38.1467 31.7519 38.52C31.3999 38.8827 31.2239 39.4107 31.2239 40.104V45H28.9839V40.104C28.9839 39.4107 28.8079 38.8827 28.4559 38.52C28.1039 38.1467 27.6239 37.96 27.0159 37.96C26.3972 37.96 25.9065 38.1467 25.5439 38.52C25.1919 38.8827 25.0159 39.4107 25.0159 40.104V45H22.7759V36.136H25.0159V37.208C25.3039 36.8347 25.6719 36.5413 26.1199 36.328C26.5785 36.1147 27.0799 36.008 27.6239 36.008C28.3172 36.008 28.9359 36.1573 29.4799 36.456C30.0239 36.744 30.4452 37.16 30.7439 37.704C31.0319 37.192 31.4479 36.7813 31.9919 36.472C32.5465 36.1627 33.1439 36.008 33.7839 36.008ZM47.7815 40.376C47.7815 40.696 47.7602 40.984 47.7175 41.24H41.2375C41.2908 41.88 41.5148 42.3813 41.9095 42.744C42.3042 43.1067 42.7895 43.288 43.3655 43.288C44.1975 43.288 44.7895 42.9307 45.1415 42.216H47.5575C47.3015 43.0693 46.8108 43.7733 46.0855 44.328C45.3602 44.872 44.4695 45.144 43.4135 45.144C42.5602 45.144 41.7922 44.9573 41.1095 44.584C40.4375 44.2 39.9095 43.6613 39.5255 42.968C39.1522 42.2747 38.9655 41.4747 38.9655 40.568C38.9655 39.6507 39.1522 38.8453 39.5255 38.152C39.8988 37.4587 40.4215 36.9253 41.0935 36.552C41.7655 36.1787 42.5388 35.992 43.4135 35.992C44.2562 35.992 45.0082 36.1733 45.6695 36.536C46.3415 36.8987 46.8588 37.416 47.2215 38.088C47.5948 38.7493 47.7815 39.512 47.7815 40.376ZM45.4615 39.736C45.4508 39.16 45.2428 38.7013 44.8375 38.36C44.4322 38.008 43.9362 37.832 43.3495 37.832C42.7948 37.832 42.3255 38.0027 41.9415 38.344C41.5682 38.6747 41.3388 39.1387 41.2535 39.736H45.4615Z" fill="white"/>
<path d="M22.1875 27.1875V20.6156C22.1875 20.1562 22.6563 19.6875 23.125 19.6875H26.875C27.3438 19.6875 27.8125 20.1562 27.8125 20.625V27.1875C27.8125 27.4361 27.9113 27.6746 28.0871 27.8504C28.2629 28.0262 28.5014 28.125 28.75 28.125H36.25C36.4986 28.125 36.7371 28.0262 36.9129 27.8504C37.0887 27.6746 37.1875 27.4361 37.1875 27.1875V14.0625C37.1877 13.9393 37.1637 13.8173 37.1167 13.7034C37.0697 13.5895 37.0008 13.486 36.9138 13.3987L34.375 10.8619V4.6875C34.375 4.43886 34.2762 4.2004 34.1004 4.02459C33.9246 3.84877 33.6861 3.75 33.4375 3.75H31.5625C31.3139 3.75 31.0754 3.84877 30.8996 4.02459C30.7238 4.2004 30.625 4.43886 30.625 4.6875V7.11187L25.6638 2.14875C25.5767 2.06144 25.4732 1.99217 25.3593 1.94491C25.2454 1.89765 25.1233 1.87332 25 1.87332C24.8767 1.87332 24.7546 1.89765 24.6407 1.94491C24.5268 1.99217 24.4233 2.06144 24.3363 2.14875L13.0863 13.3987C12.9992 13.486 12.9303 13.5895 12.8833 13.7034C12.8363 13.8173 12.8123 13.9393 12.8125 14.0625V27.1875C12.8125 27.4361 12.9113 27.6746 13.0871 27.8504C13.2629 28.0262 13.5014 28.125 13.75 28.125H21.25C21.4986 28.125 21.7371 28.0262 21.9129 27.8504C22.0887 27.6746 22.1875 27.4361 22.1875 27.1875Z" fill="#E6E6E6"/>
</svg>
