<svg width="51" height="51" viewBox="0 0 51 51" fill="none" xmlns="http://www.w3.org/2000/svg">
<path d="M9.248 37.288C9.248 37.8853 9.104 38.4453 8.816 38.968C8.53867 39.4907 8.096 39.912 7.488 40.232C6.89067 40.552 6.13333 40.712 5.216 40.712H3.344V45H1.104V33.832H5.216C6.08 33.832 6.816 33.9813 7.424 34.28C8.032 34.5787 8.48533 34.9893 8.784 35.512C9.09333 36.0347 9.248 36.6267 9.248 37.288ZM5.12 38.904C5.73867 38.904 6.19733 38.7653 6.496 38.488C6.79467 38.2 6.944 37.8 6.944 37.288C6.944 36.2 6.336 35.656 5.12 35.656H3.344V38.904H5.12ZM13.0784 37.512C13.3664 37.0427 13.7397 36.6747 14.1984 36.408C14.6677 36.1413 15.201 36.008 15.7984 36.008V38.36H15.2064C14.5024 38.36 13.969 38.5253 13.6064 38.856C13.2544 39.1867 13.0784 39.7627 13.0784 40.584V45H10.8384V36.136H13.0784V37.512ZM21.2431 45.144C20.3898 45.144 19.6218 44.9573 18.9391 44.584C18.2565 44.2 17.7178 43.6613 17.3231 42.968C16.9391 42.2747 16.7471 41.4747 16.7471 40.568C16.7471 39.6613 16.9445 38.8613 17.3391 38.168C17.7445 37.4747 18.2938 36.9413 18.9871 36.568C19.6805 36.184 20.4538 35.992 21.3071 35.992C22.1605 35.992 22.9338 36.184 23.6271 36.568C24.3205 36.9413 24.8645 37.4747 25.2591 38.168C25.6645 38.8613 25.8671 39.6613 25.8671 40.568C25.8671 41.4747 25.6591 42.2747 25.2431 42.968C24.8378 43.6613 24.2831 44.2 23.5791 44.584C22.8858 44.9573 22.1071 45.144 21.2431 45.144ZM21.2431 43.192C21.6485 43.192 22.0271 43.096 22.3791 42.904C22.7418 42.7013 23.0298 42.4027 23.2431 42.008C23.4565 41.6133 23.5631 41.1333 23.5631 40.568C23.5631 39.7253 23.3391 39.08 22.8911 38.632C22.4538 38.1733 21.9151 37.944 21.2751 37.944C20.6351 37.944 20.0965 38.1733 19.6591 38.632C19.2325 39.08 19.0191 39.7253 19.0191 40.568C19.0191 41.4107 19.2271 42.0613 19.6431 42.52C20.0698 42.968 20.6031 43.192 21.2431 43.192ZM31.5743 37.976H30.0223V45H27.7503V37.976H26.7423V36.136H27.7503V35.688C27.7503 34.6 28.0596 33.8 28.6783 33.288C29.2969 32.776 30.2303 32.536 31.4783 32.568V34.456C30.9343 34.4453 30.5556 34.536 30.3423 34.728C30.1289 34.92 30.0223 35.2667 30.0223 35.768V36.136H31.5743V37.976ZM34.1619 35.08C33.7672 35.08 33.4365 34.9573 33.1699 34.712C32.9139 34.456 32.7859 34.1413 32.7859 33.768C32.7859 33.3947 32.9139 33.0853 33.1699 32.84C33.4365 32.584 33.7672 32.456 34.1619 32.456C34.5565 32.456 34.8819 32.584 35.1379 32.84C35.4045 33.0853 35.5379 33.3947 35.5379 33.768C35.5379 34.1413 35.4045 34.456 35.1379 34.712C34.8819 34.9573 34.5565 35.08 34.1619 35.08ZM35.2659 36.136V45H33.0259V36.136H35.2659ZM39.719 33.16V45H37.479V33.16H39.719ZM50.1721 40.376C50.1721 40.696 50.1508 40.984 50.1081 41.24H43.6281C43.6815 41.88 43.9055 42.3813 44.3001 42.744C44.6948 43.1067 45.1801 43.288 45.7561 43.288C46.5881 43.288 47.1801 42.9307 47.5321 42.216H49.9481C49.6921 43.0693 49.2015 43.7733 48.4761 44.328C47.7508 44.872 46.8601 45.144 45.8041 45.144C44.9508 45.144 44.1828 44.9573 43.5001 44.584C42.8281 44.2 42.3001 43.6613 41.9161 42.968C41.5428 42.2747 41.3561 41.4747 41.3561 40.568C41.3561 39.6507 41.5428 38.8453 41.9161 38.152C42.2895 37.4587 42.8121 36.9253 43.4841 36.552C44.1561 36.1787 44.9295 35.992 45.8041 35.992C46.6468 35.992 47.3988 36.1733 48.0601 36.536C48.7321 36.8987 49.2495 37.416 49.6121 38.088C49.9855 38.7493 50.1721 39.512 50.1721 40.376ZM47.8521 39.736C47.8415 39.16 47.6335 38.7013 47.2281 38.36C46.8228 38.008 46.3268 37.832 45.7401 37.832C45.1855 37.832 44.7161 38.0027 44.3321 38.344C43.9588 38.6747 43.7295 39.1387 43.6441 39.736H47.8521Z" fill="white"/>
<path d="M16.625 26.25C16.625 26.25 14.75 26.25 14.75 24.375C14.75 22.5 16.625 16.875 26 16.875C35.375 16.875 37.25 22.5 37.25 24.375C37.25 26.25 35.375 26.25 35.375 26.25H16.625ZM26 15C27.4918 15 28.9226 14.4074 29.9775 13.3525C31.0324 12.2976 31.625 10.8668 31.625 9.375C31.625 7.88316 31.0324 6.45242 29.9775 5.39752C28.9226 4.34263 27.4918 3.75 26 3.75C24.5082 3.75 23.0774 4.34263 22.0225 5.39752C20.9676 6.45242 20.375 7.88316 20.375 9.375C20.375 10.8668 20.9676 12.2976 22.0225 13.3525C23.0774 14.4074 24.5082 15 26 15Z" fill="#E6E6E6"/>
</svg>
