<svg width="101" height="51" viewBox="0 0 101 51" fill="none" xmlns="http://www.w3.org/2000/svg">
<path d="M8.704 33.832V35.64H5.728V45H3.488V35.64H0.512V33.832H8.704ZM9.76237 40.536C9.76237 39.64 9.93837 38.8453 10.2904 38.152C10.653 37.4587 11.1384 36.9253 11.7464 36.552C12.365 36.1787 13.053 35.992 13.8104 35.992C14.4717 35.992 15.0477 36.1253 15.5384 36.392C16.0397 36.6587 16.4397 36.9947 16.7384 37.4V36.136H18.9944V45H16.7384V43.704C16.4504 44.12 16.0504 44.4667 15.5384 44.744C15.037 45.0107 14.4557 45.144 13.7944 45.144C13.0477 45.144 12.365 44.952 11.7464 44.568C11.1384 44.184 10.653 43.6453 10.2904 42.952C9.93837 42.248 9.76237 41.4427 9.76237 40.536ZM16.7384 40.568C16.7384 40.024 16.6317 39.56 16.4184 39.176C16.205 38.7813 15.917 38.4827 15.5544 38.28C15.1917 38.0667 14.8024 37.96 14.3864 37.96C13.9704 37.96 13.5864 38.0613 13.2344 38.264C12.8824 38.4667 12.5944 38.7653 12.3704 39.16C12.157 39.544 12.0504 40.0027 12.0504 40.536C12.0504 41.0693 12.157 41.5387 12.3704 41.944C12.5944 42.3387 12.8824 42.6427 13.2344 42.856C13.597 43.0693 13.981 43.176 14.3864 43.176C14.8024 43.176 15.1917 43.0747 15.5544 42.872C15.917 42.6587 16.205 42.36 16.4184 41.976C16.6317 41.5813 16.7384 41.112 16.7384 40.568ZM26.4301 45L23.4221 41.224V45H21.1821V33.16H23.4221V39.896L26.3981 36.136H29.3101L25.4061 40.584L29.3421 45H26.4301ZM38.7659 40.376C38.7659 40.696 38.7445 40.984 38.7019 41.24H32.2219C32.2752 41.88 32.4992 42.3813 32.8939 42.744C33.2885 43.1067 33.7739 43.288 34.3499 43.288C35.1819 43.288 35.7739 42.9307 36.1259 42.216H38.5419C38.2859 43.0693 37.7952 43.7733 37.0699 44.328C36.3445 44.872 35.4539 45.144 34.3979 45.144C33.5445 45.144 32.7765 44.9573 32.0939 44.584C31.4219 44.2 30.8939 43.6613 30.5099 42.968C30.1365 42.2747 29.9499 41.4747 29.9499 40.568C29.9499 39.6507 30.1365 38.8453 30.5099 38.152C30.8832 37.4587 31.4059 36.9253 32.0779 36.552C32.7499 36.1787 33.5232 35.992 34.3979 35.992C35.2405 35.992 35.9925 36.1733 36.6539 36.536C37.3259 36.8987 37.8432 37.416 38.2059 38.088C38.5792 38.7493 38.7659 39.512 38.7659 40.376ZM36.4459 39.736C36.4352 39.16 36.2272 38.7013 35.8219 38.36C35.4165 38.008 34.9205 37.832 34.3339 37.832C33.7792 37.832 33.3099 38.0027 32.9259 38.344C32.5525 38.6747 32.3232 39.1387 32.2379 39.736H36.4459ZM52.3574 37.288C52.3574 37.8853 52.2134 38.4453 51.9254 38.968C51.648 39.4907 51.2054 39.912 50.5974 40.232C50 40.552 49.2427 40.712 48.3254 40.712H46.4534V45H44.2134V33.832H48.3254C49.1894 33.832 49.9254 33.9813 50.5334 34.28C51.1414 34.5787 51.5947 34.9893 51.8934 35.512C52.2027 36.0347 52.3574 36.6267 52.3574 37.288ZM48.2294 38.904C48.848 38.904 49.3067 38.7653 49.6054 38.488C49.904 38.2 50.0534 37.8 50.0534 37.288C50.0534 36.2 49.4454 35.656 48.2294 35.656H46.4534V38.904H48.2294ZM55.0838 35.08C54.6891 35.08 54.3584 34.9573 54.0918 34.712C53.8358 34.456 53.7078 34.1413 53.7078 33.768C53.7078 33.3947 53.8358 33.0853 54.0918 32.84C54.3584 32.584 54.6891 32.456 55.0838 32.456C55.4784 32.456 55.8038 32.584 56.0598 32.84C56.3264 33.0853 56.4598 33.3947 56.4598 33.768C56.4598 34.1413 56.3264 34.456 56.0598 34.712C55.8038 34.9573 55.4784 35.08 55.0838 35.08ZM56.1878 36.136V45H53.9478V36.136H56.1878ZM57.8249 40.568C57.8249 39.6507 58.0115 38.8507 58.3849 38.168C58.7582 37.4747 59.2755 36.9413 59.9369 36.568C60.5982 36.184 61.3555 35.992 62.2089 35.992C63.3075 35.992 64.2142 36.2693 64.9289 36.824C65.6542 37.368 66.1395 38.136 66.3849 39.128H63.9689C63.8409 38.744 63.6222 38.4453 63.3129 38.232C63.0142 38.008 62.6409 37.896 62.1929 37.896C61.5529 37.896 61.0462 38.1307 60.6729 38.6C60.2995 39.0587 60.1129 39.7147 60.1129 40.568C60.1129 41.4107 60.2995 42.0667 60.6729 42.536C61.0462 42.9947 61.5529 43.224 62.1929 43.224C63.0995 43.224 63.6915 42.8187 63.9689 42.008H66.3849C66.1395 42.968 65.6542 43.7307 64.9289 44.296C64.2035 44.8613 63.2969 45.144 62.2089 45.144C61.3555 45.144 60.5982 44.9573 59.9369 44.584C59.2755 44.2 58.7582 43.6667 58.3849 42.984C58.0115 42.2907 57.8249 41.4853 57.8249 40.568ZM70.6339 37.976V42.264C70.6339 42.5627 70.7032 42.7813 70.8419 42.92C70.9912 43.048 71.2365 43.112 71.5779 43.112H72.6179V45H71.2099C69.3219 45 68.3779 44.0827 68.3779 42.248V37.976H67.3219V36.136H68.3779V33.944H70.6339V36.136H72.6179V37.976H70.6339ZM82.597 36.136V45H80.341V43.88C80.053 44.264 79.6743 44.568 79.205 44.792C78.7463 45.0053 78.245 45.112 77.701 45.112C77.0077 45.112 76.3943 44.968 75.861 44.68C75.3277 44.3813 74.9063 43.9493 74.597 43.384C74.2983 42.808 74.149 42.1253 74.149 41.336V36.136H76.389V41.016C76.389 41.72 76.565 42.264 76.917 42.648C77.269 43.0213 77.749 43.208 78.357 43.208C78.9757 43.208 79.461 43.0213 79.813 42.648C80.165 42.264 80.341 41.72 80.341 41.016V36.136H82.597ZM87.0471 37.512C87.3351 37.0427 87.7085 36.6747 88.1671 36.408C88.6365 36.1413 89.1698 36.008 89.7671 36.008V38.36H89.1751C88.4711 38.36 87.9378 38.5253 87.5751 38.856C87.2231 39.1867 87.0471 39.7627 87.0471 40.584V45H84.8071V36.136H87.0471V37.512ZM99.5159 40.376C99.5159 40.696 99.4945 40.984 99.4519 41.24H92.9719C93.0252 41.88 93.2492 42.3813 93.6439 42.744C94.0385 43.1067 94.5239 43.288 95.0999 43.288C95.9319 43.288 96.5239 42.9307 96.8759 42.216H99.2919C99.0359 43.0693 98.5452 43.7733 97.8199 44.328C97.0945 44.872 96.2039 45.144 95.1479 45.144C94.2945 45.144 93.5265 44.9573 92.8439 44.584C92.1719 44.2 91.6439 43.6613 91.2599 42.968C90.8865 42.2747 90.6999 41.4747 90.6999 40.568C90.6999 39.6507 90.8865 38.8453 91.2599 38.152C91.6332 37.4587 92.1559 36.9253 92.8279 36.552C93.4999 36.1787 94.2732 35.992 95.1479 35.992C95.9905 35.992 96.7425 36.1733 97.4039 36.536C98.0759 36.8987 98.5932 37.416 98.9559 38.088C99.3292 38.7493 99.5159 39.512 99.5159 40.376ZM97.1959 39.736C97.1852 39.16 96.9772 38.7013 96.5719 38.36C96.1665 38.008 95.6705 37.832 95.0839 37.832C94.5292 37.832 94.0599 38.0027 93.6759 38.344C93.3025 38.6747 93.0732 39.1387 92.9879 39.736H97.1959Z" fill="white"/>
<g clip-path="url(#clip0_39_3)">
<path d="M55.6875 15.9375C55.6875 17.1807 55.1936 18.373 54.3146 19.2521C53.4355 20.1311 52.2432 20.625 51 20.625C49.7568 20.625 48.5645 20.1311 47.6854 19.2521C46.8064 18.373 46.3125 17.1807 46.3125 15.9375C46.3125 14.6943 46.8064 13.502 47.6854 12.6229C48.5645 11.7439 49.7568 11.25 51 11.25C52.2432 11.25 53.4355 11.7439 54.3146 12.6229C55.1936 13.502 55.6875 14.6943 55.6875 15.9375Z" fill="#E6E6E6"/>
<path d="M39.75 7.5C38.7554 7.5 37.8016 7.89509 37.0983 8.59835C36.3951 9.30161 36 10.2554 36 11.25V22.5C36 23.4946 36.3951 24.4484 37.0983 25.1516C37.8016 25.8549 38.7554 26.25 39.75 26.25H62.25C63.2446 26.25 64.1984 25.8549 64.9016 25.1516C65.6049 24.4484 66 23.4946 66 22.5V11.25C66 10.2554 65.6049 9.30161 64.9016 8.59835C64.1984 7.89509 63.2446 7.5 62.25 7.5H60.0525C59.058 7.49979 58.1043 7.10456 57.4012 6.40125L55.8488 4.84875C55.1457 4.14544 54.192 3.75021 53.1975 3.75H48.8025C47.808 3.75021 46.8543 4.14544 46.1512 4.84875L44.5988 6.40125C43.8957 7.10456 42.942 7.49979 41.9475 7.5H39.75ZM40.6875 11.25C40.4389 11.25 40.2004 11.1512 40.0246 10.9754C39.8488 10.7996 39.75 10.5611 39.75 10.3125C39.75 10.0639 39.8488 9.8254 40.0246 9.64959C40.2004 9.47377 40.4389 9.375 40.6875 9.375C40.9361 9.375 41.1746 9.47377 41.3504 9.64959C41.5262 9.8254 41.625 10.0639 41.625 10.3125C41.625 10.5611 41.5262 10.7996 41.3504 10.9754C41.1746 11.1512 40.9361 11.25 40.6875 11.25ZM57.5625 15.9375C57.5625 17.678 56.8711 19.3472 55.6404 20.5779C54.4097 21.8086 52.7405 22.5 51 22.5C49.2595 22.5 47.5903 21.8086 46.3596 20.5779C45.1289 19.3472 44.4375 17.678 44.4375 15.9375C44.4375 14.197 45.1289 12.5278 46.3596 11.2971C47.5903 10.0664 49.2595 9.375 51 9.375C52.7405 9.375 54.4097 10.0664 55.6404 11.2971C56.8711 12.5278 57.5625 14.197 57.5625 15.9375Z" fill="#E6E6E6"/>
</g>
<defs>
<clipPath id="clip0_39_3">
<rect width="30" height="30" fill="white" transform="translate(36)"/>
</clipPath>
</defs>
</svg>
